<svg width="25" height="25" viewBox="0 0 25 25" fill="none" xmlns="http://www.w3.org/2000/svg">
<path d="M15 3.78788C15 3.18511 14.7366 2.60704 14.2678 2.18082C13.7989 1.7546 13.163 1.51515 12.5 1.51515C11.837 1.51515 11.2011 1.7546 10.7322 2.18082C10.2634 2.60704 10 3.18511 10 3.78788H8.33333C8.33333 2.78327 8.77232 1.81981 9.55372 1.10944C10.3351 0.399079 11.3949 0 12.5 0C13.6051 0 14.6649 0.399079 15.4463 1.10944C16.2277 1.81981 16.6667 2.78327 16.6667 3.78788H24.1667C24.3877 3.78788 24.5996 3.86769 24.7559 4.00977C24.9122 4.15184 25 4.34453 25 4.54545C25 4.74638 24.9122 4.93907 24.7559 5.08114C24.5996 5.22321 24.3877 5.30303 24.1667 5.30303H23.2433L21.0833 22.3182C20.9893 23.0567 20.5999 23.738 19.9893 24.2324C19.3787 24.7269 18.5894 25.0001 17.7717 25H7.22833C6.41058 25.0001 5.62132 24.7269 5.0107 24.2324C4.40008 23.738 4.01071 23.0567 3.91667 22.3182L1.755 5.30303H0.833333C0.638291 5.30309 0.449404 5.24095 0.299569 5.12744C0.149733 5.01393 0.0484408 4.85623 0.0133332 4.68182L0 4.54545C0 4.34453 0.0877975 4.15184 0.244078 4.00977C0.400358 3.86769 0.61232 3.78788 0.833333 3.78788H15ZM21.5633 5.30303H3.435L5.57167 22.1439C5.6187 22.5133 5.81351 22.8541 6.11899 23.1013C6.42448 23.3486 6.81931 23.4851 7.22833 23.4848H17.7717C18.1804 23.4847 18.5748 23.348 18.88 23.1008C19.1851 22.8536 19.3797 22.513 19.4267 22.1439L21.5633 5.30303ZM10 9.09091C10.4083 9.09091 10.75 9.32576 10.82 9.63485L10.8333 9.75455V19.0348C10.8333 19.4 10.46 19.697 10 19.697C9.59167 19.697 9.25 19.4621 9.18 19.153L9.16667 19.0333V9.75606C9.16667 9.38939 9.54 9.09242 10 9.09242V9.09091ZM15 9.09091C15.4083 9.09091 15.75 9.32576 15.82 9.63485L15.8333 9.75455V19.0348C15.8333 19.4 15.46 19.697 15 19.697C14.5917 19.697 14.25 19.4621 14.18 19.153L14.1667 19.0333V9.75606C14.1667 9.38939 14.54 9.09242 15 9.09242V9.09091Z" fill="#DFEBF3"/>
</svg>
