<svg width="25" height="25" viewBox="0 0 25 25" fill="none" xmlns="http://www.w3.org/2000/svg">
<path d="M17.9669 0C18.4798 0 18.9878 0.101043 19.4617 0.29736C19.9356 0.493677 20.3662 0.781424 20.7289 1.14417C21.0917 1.50692 21.3794 1.93756 21.5757 2.41151C21.772 2.88546 21.873 3.39344 21.873 3.90644V9.37859C21.3349 9.40305 20.8057 9.52426 20.3106 9.73642V6.25031H1.56091V17.9681C1.56091 18.5897 1.80783 19.1859 2.24736 19.6254C2.68689 20.065 3.28303 20.3119 3.90461 20.3119H10.1154C10.0904 20.3901 10.0686 20.4729 10.0483 20.5541L9.71857 21.8745H3.90618C2.87019 21.8745 1.87664 21.4629 1.14409 20.7303C0.411542 19.9977 0 19.0041 0 17.9681V3.90488C0.000414285 2.8691 0.41214 1.87588 1.14465 1.14362C1.87715 0.411356 2.87047 -8.28626e-08 3.90618 0H17.9669ZM17.9669 1.56258H3.90461C3.2833 1.56299 2.68757 1.81012 2.24837 2.24963C1.80918 2.68915 1.56247 3.28508 1.56247 3.90644V4.68773H20.3121V3.90644C20.3121 3.28481 20.0652 2.68864 19.6257 2.24908C19.1861 1.80952 18.59 1.56258 17.9684 1.56258H17.9669ZM12.467 19.3385L20.0121 11.7912C20.5604 11.2433 21.3038 10.9357 22.0788 10.936C22.8539 10.9363 23.597 11.2445 24.1449 11.7928C24.6927 12.341 25.0003 13.0845 25 13.8596C24.9997 14.6347 24.6915 15.3779 24.1433 15.9258L16.5981 23.4699C16.1585 23.9098 15.6076 24.2219 15.0044 24.3731L12.6638 24.959C12.431 25.0168 12.1873 25.0134 11.9562 24.9491C11.7251 24.8849 11.5146 24.7619 11.3451 24.5922C11.1755 24.4225 11.0528 24.2119 10.9887 23.9807C10.9247 23.7496 10.9215 23.5058 10.9795 23.273L11.5638 20.9323C11.7154 20.3291 12.0263 19.7775 12.467 19.3385V19.3385Z" fill="#DFEBF3"/>
</svg>
