<svg width="75" height="75" viewBox="0 0 75 75" fill="none" xmlns="http://www.w3.org/2000/svg">
<path d="M66.3394 61.4192C70.1889 56.7914 72.8662 51.3053 74.145 45.4249C75.4237 39.5446 75.2662 33.443 73.6857 27.6364C72.1053 21.8297 69.1484 16.4888 65.0652 12.0655C60.982 7.64218 55.8927 4.26654 50.2277 2.22416C44.5627 0.181779 38.4887 -0.467264 32.5196 0.331936C26.5504 1.13114 20.8617 3.35507 15.9347 6.8156C11.0077 10.2761 6.98735 14.8715 4.21371 20.2128C1.44006 25.5542 -0.0052607 31.4845 1.43879e-05 37.5021C0.00203862 46.2498 3.08725 54.7175 8.71427 61.4192L8.66066 61.4647C8.8483 61.6897 9.06274 61.8825 9.25573 62.1048C9.49698 62.3807 9.75698 62.6405 10.0063 62.9083C10.7568 63.7225 11.5288 64.5045 12.3383 65.2384C12.5849 65.4634 12.8395 65.6723 13.0888 65.8865C13.9466 66.6257 14.8285 67.3275 15.7425 67.981C15.8604 68.0613 15.9677 68.1658 16.0856 68.2488V68.2167C22.3636 72.6309 29.8529 75 37.5295 75C45.2061 75 52.6954 72.6309 58.9734 68.2167V68.2488C59.0913 68.1658 59.1959 68.0613 59.3165 67.981C60.2279 67.3248 61.1124 66.6257 61.9702 65.8865C62.2195 65.6723 62.4741 65.4607 62.7207 65.2384C63.5302 64.5019 64.3022 63.7225 65.0527 62.9083C65.302 62.6405 65.5593 62.3807 65.8033 62.1048C65.9936 61.8825 66.2107 61.6897 66.3983 61.462L66.3394 61.4192ZM37.5268 16.0758C39.9125 16.0758 42.2446 16.7826 44.2282 18.1069C46.2118 19.4313 47.7579 21.3136 48.6708 23.5158C49.5838 25.7181 49.8227 28.1414 49.3572 30.4793C48.8918 32.8173 47.743 34.9648 46.0561 36.6503C44.3691 38.3359 42.2199 39.4837 39.88 39.9488C37.5402 40.4138 35.1149 40.1751 32.9108 39.2629C30.7067 38.3507 28.8229 36.8059 27.4975 34.8239C26.1721 32.842 25.4646 30.5118 25.4646 28.1281C25.4646 24.9316 26.7355 21.866 28.9976 19.6058C31.2597 17.3456 34.3277 16.0758 37.5268 16.0758ZM16.1017 61.4192C16.1482 57.9025 17.5785 54.5455 20.0832 52.0744C22.5879 49.6034 25.9655 48.217 29.4854 48.2152H45.5683C49.0881 48.217 52.4658 49.6034 54.9705 52.0744C57.4751 54.5455 58.9054 57.9025 58.9519 61.4192C53.0732 66.7123 45.4403 69.6417 37.5268 69.6417C29.6133 69.6417 21.9804 66.7123 16.1017 61.4192Z" fill="#4A7BA8"/>
</svg>
